<svg width="38" height="38" viewBox="0 0 38 38" fill="none" xmlns="http://www.w3.org/2000/svg">
<rect width="38" height="38" rx="10" fill="#2B2B2B"/>
<path d="M27 10H15C13.8954 10 13 10.8954 13 12V15C13 15.5523 12.5523 16 12 16C10.3431 16 9 17.3431 9 19C9 20.6569 10.3431 22 12 22C12.5523 22 13 22.4477 13 23V26C13 27.1046 13.8954 28 15 28H17C17.5523 28 18 27.5523 18 27C18 25.3431 19.3431 24 21 24C22.6569 24 24 25.3431 24 27C24 27.5523 24.4477 28 25 28H27C28.1046 28 29 27.1046 29 26V23C29 22.4477 28.5523 22 28 22C26.3431 22 25 20.6569 25 19C25 17.3431 26.3431 16 28 16C28.5523 16 29 15.5523 29 15V12C29 10.8954 28.1046 10 27 10Z" fill="white"/>
</svg>
