<svg width="38" height="38" viewBox="0 0 38 38" fill="none" xmlns="http://www.w3.org/2000/svg">
<rect width="38" height="38" rx="10" fill="#2B2B2B"/>
<path d="M19.6851 12.0001L19 12.7026L18.315 12.0001C16.184 9.81479 12.7291 9.81479 10.5982 12.0001C8.5245 14.1267 8.46078 17.5539 10.4539 19.76L16.1803 26.0982C17.7015 27.7821 20.2984 27.7821 21.8197 26.0982L27.5461 19.76C29.5392 17.5539 29.4755 14.1267 27.4018 12.0001C25.2709 9.81477 21.816 9.81478 19.6851 12.0001Z" fill="#D92D20"/>
<path fill-rule="evenodd" clip-rule="evenodd" d="M23.25 13.5C23.25 13.0858 23.5858 12.75 24 12.75C25.5188 12.75 26.75 13.9812 26.75 15.5C26.75 15.9142 26.4142 16.25 26 16.25C25.5858 16.25 25.25 15.9142 25.25 15.5C25.25 14.8096 24.6904 14.25 24 14.25C23.5858 14.25 23.25 13.9142 23.25 13.5Z" fill="white"/>
</svg>
