<svg width="38" height="38" viewBox="0 0 38 38" fill="none" xmlns="http://www.w3.org/2000/svg">
<rect width="38" height="38" rx="10" fill="#2B2B2B"/>
<path d="M17.9089 12.042C17.9089 10.2264 20.104 9.31718 21.3878 10.601L27.399 16.6122C28.6828 17.896 27.7736 20.091 25.958 20.091C25.4176 20.091 24.8992 20.3057 24.517 20.6879L22.8288 22.3761C22.4466 22.7583 22.2319 23.2767 22.2319 23.8171C22.2319 25.6327 20.0368 26.5419 18.7531 25.2581L12.7418 19.2469C11.458 17.9631 12.3673 15.7681 14.1828 15.7681C14.7233 15.7681 15.2416 15.5534 15.6238 15.1712L17.3121 13.483C17.6942 13.1008 17.9089 12.5824 17.9089 12.042Z" fill="white"/>
<path d="M15.5 22.5L10 28" stroke="white"/>
</svg>
