<svg width="38" height="38" viewBox="0 0 38 38" fill="none" xmlns="http://www.w3.org/2000/svg">
<rect width="38" height="38" rx="10" fill="#2B2B2B"/>
<g clip-path="url(#clip0_510_1360)">
<path fill-rule="evenodd" clip-rule="evenodd" d="M12.8152 7H21.3984L28.5984 14.2V27.8755C28.5984 29.6027 27.1037 31 25.2626 31H12.7406C10.8931 31 9.39844 29.6027 9.39844 27.8755V10.1244C9.39841 8.39727 10.9677 7 12.8152 7Z" fill="#D92D20"/>
<path d="M21.4138 11.896V7L28.5984 14.2H23.8087C21.6533 14.2 21.314 12.664 21.4138 11.896Z" fill="white" fill-opacity="0.3"/>
<path d="M13.4994 26.2V21.8363H15.221C15.5519 21.8363 15.8339 21.8995 16.0669 22.0259C16.2998 22.1509 16.4774 22.325 16.5995 22.548C16.7231 22.7696 16.7849 23.0252 16.7849 23.315C16.7849 23.6048 16.7224 23.8605 16.5974 24.0821C16.4724 24.3036 16.2913 24.4762 16.0541 24.5998C15.8183 24.7234 15.5328 24.7852 15.1975 24.7852H14.1002V24.0458H15.0484C15.2259 24.0458 15.3722 24.0153 15.4873 23.9542C15.6038 23.8917 15.6904 23.8058 15.7472 23.6964C15.8055 23.5856 15.8346 23.4585 15.8346 23.315C15.8346 23.1701 15.8055 23.0437 15.7472 22.9357C15.6904 22.8264 15.6038 22.7419 15.4873 22.6822C15.3708 22.6211 15.2231 22.5906 15.0441 22.5906H14.422V26.2H13.4994ZM18.931 26.2H17.3841V21.8363H18.9438C19.3827 21.8363 19.7606 21.9237 20.0773 22.0984C20.3941 22.2717 20.6377 22.521 20.8082 22.8463C20.98 23.1715 21.066 23.5607 21.066 24.0139C21.066 24.4684 20.98 24.859 20.8082 25.1857C20.6377 25.5125 20.3927 25.7632 20.0731 25.9379C19.7549 26.1126 19.3742 26.2 18.931 26.2ZM18.3067 25.4095H18.8927C19.1654 25.4095 19.3948 25.3612 19.5809 25.2646C19.7684 25.1666 19.909 25.0153 20.0028 24.8107C20.0979 24.6048 20.1455 24.3392 20.1455 24.0139C20.1455 23.6914 20.0979 23.4279 20.0028 23.2234C19.909 23.0188 19.7691 22.8683 19.583 22.7717C19.3969 22.6751 19.1675 22.6268 18.8948 22.6268H18.3067V25.4095ZM21.7494 26.2V21.8363H24.6386V22.597H22.672V23.6367H24.4468V24.3974H22.672V26.2H21.7494Z" fill="white"/>
</g>
<defs>
<clipPath id="clip0_510_1360">
<rect width="24" height="24" fill="white" transform="translate(7 7)"/>
</clipPath>
</defs>
</svg>
